<?xml version="1.0" standalone="no"?>
<!DOCTYPE svg PUBLIC "-//W3C//DTD SVG 20010904//EN"
 "http://www.w3.org/TR/2001/REC-SVG-20010904/DTD/svg10.dtd">
<svg version="1.0" xmlns="http://www.w3.org/2000/svg"
 width="260.000000pt" height="260.000000pt" viewBox="0 0 260.000000 260.000000"
 preserveAspectRatio="xMidYMid meet">
<metadata>
Created by potrace 1.11, written by Peter Selinger 2001-2013
</metadata>
<g transform="translate(0.000000,260.000000) scale(0.100000,-0.100000)"
fill="#000000" stroke="none">
<path d="M1136 2420 c-472 -74 -845 -431 -948 -905 -17 -79 -17 -361 0 -440
98 -454 444 -800 897 -897 79 -16 361 -16 440 0 453 97 800 444 897 897 7 35
12 128 12 220 0 92 -5 185 -12 220 -97 451 -444 800 -892 895 -72 16 -319 21
-394 10z m271 -291 c43 -16 73 -37 116 -81 l59 -59 56 12 c105 21 204 -6 275
-77 77 -76 115 -196 96 -301 l-11 -56 47 -40 c149 -128 136 -356 -28 -472 -26
-19 -27 -22 -16 -53 18 -52 7 -179 -21 -237 -71 -147 -243 -217 -392 -160 -11
5 -26 -7 -47 -39 -105 -151 -376 -149 -477 4 -22 33 -31 39 -48 33 -12 -5 -59
-8 -106 -8 -69 0 -94 4 -133 24 -61 29 -121 90 -154 156 -29 55 -42 171 -25
215 8 22 3 32 -43 82 -148 159 -133 396 29 483 26 14 34 24 30 35 -4 8 -9 50
-12 93 -5 98 14 152 75 218 77 82 221 127 322 99 39 -10 45 -10 53 5 68 120
220 173 355 124z"/>
<path d="M1234 2106 c-56 -18 -105 -57 -132 -104 l-22 -40 40 -35 c62 -57 116
-80 185 -80 39 0 72 6 95 18 43 22 130 96 130 110 0 22 -60 82 -107 107 -60
33 -134 42 -189 24z"/>
<path d="M815 1906 c-95 -44 -153 -141 -142 -237 4 -28 12 -57 18 -65 28 -33
162 -5 234 50 41 32 91 132 99 199 6 47 5 48 -29 63 -51 21 -122 17 -180 -10z"/>
<path d="M1645 1917 c-37 -12 -40 -16 -43 -52 -8 -95 52 -196 144 -241 66 -32
161 -45 175 -23 14 22 11 146 -4 182 -45 107 -167 167 -272 134z"/>
<path d="M1066 1848 c-2 -7 -9 -35 -15 -63 -16 -68 -76 -153 -132 -187 -25
-16 -74 -35 -110 -42 -35 -7 -63 -18 -62 -23 1 -5 18 -33 37 -62 45 -66 70
-150 61 -199 -8 -45 -47 -123 -92 -184 -38 -53 -38 -53 44 -62 131 -13 235
-112 250 -237 3 -27 10 -49 14 -49 5 0 28 13 50 30 56 40 140 70 197 70 51 0
146 -39 206 -85 37 -28 46 -25 46 18 0 61 24 111 80 168 57 59 139 99 200 99
37 0 37 8 0 66 -85 134 -85 280 1 393 21 28 39 53 39 55 0 2 -24 6 -54 9 -146
15 -266 134 -266 264 0 35 -18 44 -39 19 -6 -7 -44 -28 -83 -47 -113 -53 -221
-43 -313 26 -50 39 -54 40 -59 23z"/>
<path d="M589 1507 c-98 -66 -122 -186 -63 -317 23 -51 78 -120 96 -120 16 0
89 87 113 134 32 64 32 125 1 192 -22 46 -91 134 -107 134 -3 0 -21 -10 -40
-23z"/>
<path d="M1938 1482 c-53 -69 -88 -149 -88 -203 0 -49 27 -99 93 -174 l35 -40
37 30 c85 68 122 188 90 285 -17 50 -97 150 -121 150 -5 0 -26 -22 -46 -48z"/>
<path d="M1828 1006 c-86 -23 -164 -101 -219 -221 l-32 -68 27 -24 c22 -18 39
-23 84 -23 171 1 292 166 229 313 -18 41 -21 41 -89 23z"/>
<path d="M692 988 c-33 -33 1 -194 54 -257 36 -43 117 -74 180 -69 70 6 84 19
84 77 0 133 -80 225 -221 251 -67 13 -82 13 -97 -2z"/>
<path d="M1209 728 c-54 -28 -129 -89 -129 -105 0 -18 68 -92 101 -108 50 -27
115 -36 168 -24 55 12 145 70 168 110 15 25 15 27 -23 62 -91 86 -197 109
-285 65z"/>
</g>
</svg>
